<svg width="191" height="178" viewBox="0 0 191 178" fill="none" xmlns="http://www.w3.org/2000/svg">
<path d="M174.396 12.6833H34.8792C30.6763 12.689 26.6462 14.3608 23.6736 17.332C20.7024 20.3046 19.0308 24.3346 19.025 28.5375V63.67C13.7466 64.4316 8.91928 67.0687 5.42593 71.0973C1.93236 75.1274 0.0057981 80.2801 0 85.6125V122.166C0.00141546 123.642 0.34398 125.099 1.0022 126.421L6.02444 136.422C6.23536 136.865 6.34435 137.351 6.34152 137.842V174.395C6.34152 175.236 6.67559 176.043 7.27012 176.637C7.86465 177.232 8.67152 177.566 9.51236 177.566H41.2207C42.0615 177.566 42.8684 177.232 43.4629 176.637C44.0574 176.043 44.3915 175.236 44.3915 174.395V155.018C44.3944 151.572 45.197 148.173 46.7342 145.09L51.5597 135.437H51.5611C51.9263 134.703 52.2505 133.947 52.5308 133.174H174.396C178.599 133.168 182.629 131.496 185.601 128.525C188.573 125.553 190.244 121.523 190.25 117.32V28.5364C190.244 24.3335 188.573 20.3035 185.601 17.3308C182.629 14.3596 178.599 12.688 174.396 12.6822L174.396 12.6833ZM25.3667 28.5375C25.3667 26.015 26.3689 23.5943 28.1525 21.811C29.9361 20.0277 32.3568 19.0252 34.879 19.0252H50.7332V84.8879C48.716 84.9587 46.7752 85.6778 45.1996 86.9391C43.6227 88.2004 42.4959 89.9358 41.9849 91.8892L38.3285 105.524C37.9618 106.893 36.7204 107.844 35.3034 107.845H35.2652C34.178 107.835 33.173 107.259 32.6181 106.322L25.3661 94.2491L25.3667 28.5375ZM47.5625 122.996V125.51C47.5583 127.971 46.9864 130.399 45.8879 132.603L41.0624 142.254C39.0863 146.219 38.0558 150.588 38.0501 155.017V171.224H12.6835V137.841C12.6821 136.364 12.3395 134.908 11.6813 133.586L6.67462 123.585C6.45804 123.143 6.34338 122.658 6.34197 122.165V85.6116C6.34621 81.9581 7.6103 78.4176 9.92048 75.5867C12.2307 72.757 15.4468 70.8105 19.0253 70.0745V95.1241C19.0253 95.6988 19.1824 96.2636 19.4783 96.7577L27.1803 109.594V109.593C28.8648 112.422 31.904 114.168 35.1965 114.193C37.293 114.19 39.3328 113.504 41.003 112.237C42.6748 110.97 43.8864 109.192 44.4555 107.173L48.1119 93.5385C48.3257 92.7246 48.8579 92.0309 49.5883 91.6134C50.3159 91.1944 51.1808 91.0797 51.9919 91.2963C52.8045 91.5143 53.4981 92.0465 53.9185 92.7741C54.3389 93.5031 54.4522 94.368 54.2342 95.1805L48.3201 117.262V117.263C47.819 119.132 47.5642 121.06 47.5628 122.996L47.5625 122.996ZM183.908 117.319C183.908 119.842 182.906 122.263 181.123 124.046C179.339 125.829 176.918 126.832 174.396 126.832H57.0752V109.075L60.3607 96.8135C60.8462 95.02 60.7938 93.1245 60.2092 91.3622C59.6246 89.5984 58.5346 88.0456 57.0752 86.8977V19.0237H174.396C176.919 19.0237 179.339 20.0259 181.123 21.8095C182.906 23.5931 183.908 26.0139 183.908 28.5361V117.319Z" fill="black"/>
<path d="M104.637 50.7333H110.979V57.075H104.637V50.7333Z" fill="black"/>
<path d="M117.321 50.7333H123.662V57.075H117.321V50.7333Z" fill="black"/>
<path d="M158.542 92.5376V91.9544C158.536 87.7515 156.864 83.7215 153.893 80.7489C150.92 77.7776 146.89 76.106 142.688 76.1002H140.468L134.52 72.134C135.7 70.5245 136.34 68.5838 136.346 66.5877V47.5627C136.346 45.0402 135.344 42.6195 133.56 40.8362C131.776 39.0529 129.356 38.0504 126.834 38.0504H117.321V25.3671H110.979V38.0504H101.467C98.9444 38.0504 96.5236 39.0526 94.7404 40.8362C92.9571 42.6198 91.9546 45.0405 91.9546 47.5627V66.5877C91.9588 68.5822 92.5944 70.5243 93.7721 72.134L87.8323 76.1002H85.6127C81.4099 76.1059 77.3798 77.7777 74.4072 80.7489C71.436 83.7215 69.7644 87.7515 69.7586 91.9544V92.5376C67.9099 93.1916 66.3089 94.4005 65.1737 95.9986C64.0385 97.5968 63.4255 99.5064 63.417 101.467H69.7587C69.7587 99.7159 71.1785 98.2961 72.9295 98.2961C74.6805 98.2961 76.1004 99.7159 76.1004 101.467H82.442C82.4335 99.5064 81.8206 97.5967 80.6853 95.9986C79.55 94.4005 77.949 93.1916 76.1005 92.5376V91.9544C76.1005 89.4319 77.1027 87.0112 78.8863 85.2279C80.6699 83.4446 83.0906 82.4421 85.6128 82.4421V104.638C85.6128 105.129 85.726 105.615 85.9454 106.055L92.2871 118.738C92.825 119.814 93.9235 120.492 95.1253 120.492H133.175C134.383 120.499 135.49 119.818 136.029 118.738L142.371 106.055C142.584 105.613 142.693 105.129 142.688 104.638V82.4421C145.21 82.4421 147.631 83.4443 149.414 85.2279C151.198 87.0115 152.2 89.4322 152.2 91.9544V92.5376C150.351 93.1916 148.75 94.4005 147.615 95.9986C146.48 97.5968 145.867 99.5064 145.859 101.467H152.2C152.2 99.7159 153.62 98.2961 155.371 98.2961C157.122 98.2961 158.542 99.7159 158.542 101.467H164.884C164.875 99.5064 164.262 97.5967 163.127 95.9986C161.992 94.4005 160.391 93.1916 158.542 92.5376H158.542ZM98.2958 47.5625C98.2958 45.8115 99.7156 44.3917 101.467 44.3917H126.833C127.674 44.3917 128.481 44.7257 129.076 45.3203C129.67 45.9148 130.004 46.7217 130.004 47.5625V66.5875C130.004 67.4283 129.67 68.2352 129.076 68.8297C128.481 69.4243 127.674 69.7583 126.833 69.7583H123.663V63.4167C123.663 62.5758 123.328 61.769 122.734 61.1744C122.139 60.5799 121.332 60.2458 120.492 60.2458H107.808C106.057 60.2458 104.637 61.6656 104.637 63.4167V69.7583H101.467C99.7156 69.7583 98.2958 68.3385 98.2958 66.5875V47.5625ZM117.321 69.7583H110.979V66.5875H117.321V69.7583ZM99.2471 76.1H129.053L136.346 80.9668V101.467H130.004V98.2958C130.004 92.6322 126.982 87.3976 122.077 84.5663C117.172 81.7338 111.128 81.7338 106.223 84.5663C101.318 87.3974 98.2958 92.6322 98.2958 98.2958V101.467H91.9542V80.9668L99.2471 76.1ZM123.663 101.467H104.637V98.2958C104.637 94.8971 106.451 91.7574 109.394 90.0575C112.337 88.3588 115.963 88.3588 118.906 90.0575C121.849 91.7575 123.663 94.8971 123.663 98.2958V101.467ZM131.216 114.15H97.084L93.9132 107.808H134.388L131.216 114.15Z" fill="black"/>
<path d="M38.05 82.4417C40.5725 82.4417 42.9932 81.4395 44.7765 79.6559C46.5598 77.8722 47.5623 75.4515 47.5623 72.9293C47.5623 70.4072 46.5601 67.9861 44.7765 66.2028C42.9929 64.4195 40.5722 63.417 38.05 63.417C35.5278 63.417 33.1068 64.4192 31.3235 66.2028C29.5402 67.9864 28.5377 70.4072 28.5377 72.9293C28.5377 75.4515 29.5399 77.8726 31.3235 79.6559C33.1071 81.4391 35.5278 82.4417 38.05 82.4417ZM38.05 69.7583C39.3325 69.7583 40.489 70.5312 40.9788 71.716C41.47 72.9008 41.1996 74.264 40.2922 75.1714C39.3849 76.0788 38.0217 76.3491 36.8369 75.8579C35.6521 75.3681 34.8792 74.2116 34.8792 72.9292C34.8792 71.1781 36.299 69.7583 38.05 69.7583Z" fill="black"/>
<path d="M152.2 28.5375H171.225V34.8792H152.2V28.5375Z" fill="black"/>
<path d="M152.2 41.2208H171.225V47.5625H152.2V41.2208Z" fill="black"/>
<path d="M69.7583 28.5375H82.4417V34.8792H69.7583V28.5375Z" fill="black"/>
<path d="M69.7583 41.2208H82.4417V47.5625H69.7583V41.2208Z" fill="black"/>
<path d="M82.4417 139.517H126.833V145.858H82.4417V139.517Z" fill="black"/>
<path d="M133.175 139.517H139.517V145.858H133.175V139.517Z" fill="black"/>
<path d="M95.125 0H139.517V6.34166H95.125V0Z" fill="black"/>
<path d="M82.4417 0H88.7833V6.34166H82.4417V0Z" fill="black"/>
</svg>
